<svg xmlns="http://www.w3.org/2000/svg" viewBox="0 0 64 64" fill="none">
  <defs>
    <clipPath id="skyClip">
      <circle cx="32" cy="32" r="25"/>
    </clipPath>
  </defs>
  <circle cx="32" cy="32" r="25" fill="#1e40af"/>
  <g clip-path="url(#skyClip)">
    <polygon points="7 42 30 12 58 22 44 47 17 54" fill="#2563eb"/>
    <polygon points="9 20 29 8 49 16 31 28" fill="#3b82f6" fill-opacity="0.9"/>
    <polygon points="34 34 58 30 51 57 29 58" fill="#1d4ed8"/>
  </g>
  <polygon points="20 17 22.4 22.3 27.8 24.6 22.4 26.9 20 32.2 17.6 26.9 12.2 24.6 17.6 22.3" fill="#f8fafc"/>
  <polygon points="43 14 44.4 17.1 47.5 18.5 44.4 19.9 43 23 41.6 19.9 38.5 18.5 41.6 17.1" fill="#f8fafc"/>
  <circle cx="46" cy="37" r="1.8" fill="#f8fafc"/>
  <circle cx="27" cy="44" r="1.5" fill="#f8fafc"/>
  <circle cx="32" cy="32" r="25" stroke="#0f172a" stroke-opacity="0.14" stroke-width="1.6"/>
</svg>
